<?xml version="1.0" encoding="utf-8"?>
<!-- Generator: Adobe Illustrator 26.0.3, SVG Export Plug-In . SVG Version: 6.00 Build 0)  -->
<svg version="1.1" id="katman_1" xmlns="http://www.w3.org/2000/svg" xmlns:xlink="http://www.w3.org/1999/xlink" x="0px" y="0px"
	 viewBox="0 0 640 480" style="enable-background:new 0 0 640 480;" xml:space="preserve">
<style type="text/css">
	.st0{fill:#003566;}
</style>
<g>
	<path class="st0" d="M84.3,161.02h8.14l10.25,16.28l-0.29-3.04v-13.23h8.06v28.22h-8.28l-10.03-16.02l0.21,3.51v12.51H84.3V161.02z
		"/>
	<path class="st0" d="M128.74,183.29h6.52c-1.24,4.37-4.35,6.55-9.31,6.55c-3.1,0-5.56-0.94-7.37-2.81s-2.71-4.46-2.71-7.76
		c0-3.07,0.9-5.53,2.71-7.39s4.21-2.78,7.21-2.78c1.81,0,3.55,0.45,5.22,1.34c1.67,0.9,2.88,2.08,3.65,3.56
		c0.76,1.48,1.19,3.81,1.28,7h-12.91c0.11,2.89,1.12,4.33,3.03,4.33c0.66,0,1.24-0.19,1.76-0.57
		C128.32,184.39,128.64,183.9,128.74,183.29z M123.13,177.67h5.62c-0.05-1.37-0.29-2.38-0.72-3.03s-1.1-0.98-2.02-0.98
		c-1.03,0-1.77,0.32-2.21,0.95C123.35,175.24,123.13,176.26,123.13,177.67z"/>
	<path class="st0" d="M137.98,169.79h7.64c1.77,6.14,2.78,9.79,3.01,10.93h0.11l2.61-10.93h6.55l2.61,10.74h0.11
		c0.43-1.63,0.72-2.73,0.88-3.28l2.24-7.46h7.64l-7.58,19.45h-5.83c-1.99-5.81-3.1-9.3-3.33-10.48h-0.11
		c-0.16,0.99-1.23,4.48-3.22,10.48h-5.77L137.98,169.79z"/>
	<path class="st0" d="M213.37,173.42v4.73c0,3.66-1.11,6.54-3.34,8.63c-2.23,2.09-5.27,3.14-9.14,3.14c-4.33,0-7.67-1.29-10.03-3.88
		c-2.36-2.59-3.54-6.27-3.54-11.06c0-4.83,1.18-8.5,3.53-11c2.35-2.5,5.79-3.75,10.31-3.75c5.07,0,8.75,2.15,11.02,6.45l-7.69,2.52
		c-0.64-0.9-1.23-1.56-1.78-1.98c-0.55-0.42-1.3-0.62-2.26-0.62c-1.63,0-2.79,0.68-3.47,2.04c-0.68,1.36-1.02,3.56-1.02,6.6
		c0,2.83,0.39,4.91,1.16,6.25c0.77,1.33,2,2,3.69,2c2.7,0,4.09-1.53,4.18-4.59h-3.75v-5.47H213.37z"/>
	<path class="st0" d="M230.64,189.23v-2.56h-0.11c-0.94,1.1-1.85,1.91-2.73,2.43c-0.88,0.52-1.91,0.78-3.1,0.78
		c-2.32,0-4.18-0.94-5.56-2.83c-1.38-1.89-2.08-4.45-2.08-7.69c0-3.11,0.7-5.59,2.1-7.44c1.4-1.85,3.25-2.77,5.54-2.77
		c1.22,0,2.26,0.24,3.11,0.73c0.85,0.49,1.74,1.26,2.66,2.34h0.11v-2.43h7.74v19.45H230.64z M230.64,179.4
		c0-3.23-0.99-4.84-2.98-4.84c-2,0-3.01,1.61-3.01,4.84c0,3.35,1.04,5.03,3.11,5.03C229.68,184.44,230.64,182.76,230.64,179.4z"/>
	<path class="st0" d="M251.96,169.79v2.39c2.2-2.04,4.44-3.06,6.71-3.06c2.73,0,4.5,1.12,5.3,3.36c1.24-1.17,2.4-2.02,3.47-2.56
		c1.07-0.54,2.33-0.8,3.77-0.8c3.6,0,5.4,2,5.4,6v14.12h-7.74v-11.48c0-1.87-0.76-2.81-2.29-2.81c-1.56,0-2.34,0.92-2.34,2.77v11.52
		h-7.74v-11.82c0-0.72-0.21-1.31-0.63-1.78c-0.42-0.47-0.95-0.7-1.61-0.7c-0.69,0-1.25,0.23-1.66,0.68
		c-0.42,0.45-0.63,1.06-0.63,1.84v11.77h-7.72v-19.45H251.96z"/>
	<path class="st0" d="M293.79,183.29h6.52c-1.24,4.37-4.35,6.55-9.31,6.55c-3.1,0-5.56-0.94-7.37-2.81s-2.71-4.46-2.71-7.76
		c0-3.07,0.9-5.53,2.71-7.39s4.21-2.78,7.21-2.78c1.81,0,3.55,0.45,5.22,1.34c1.67,0.9,2.88,2.08,3.65,3.56
		c0.76,1.48,1.19,3.81,1.28,7h-12.91c0.11,2.89,1.12,4.33,3.03,4.33c0.66,0,1.24-0.19,1.76-0.57
		C293.37,184.39,293.69,183.9,293.79,183.29z M288.18,177.67h5.62c-0.05-1.37-0.29-2.38-0.72-3.03s-1.1-0.98-2.02-0.98
		c-1.03,0-1.77,0.32-2.21,0.95C288.4,175.24,288.18,176.26,288.18,177.67z"/>
</g>
</svg>
