<?xml version="1.0" encoding="utf-8"?>
<!-- Generator: Adobe Illustrator 26.0.3, SVG Export Plug-In . SVG Version: 6.00 Build 0)  -->
<svg version="1.1" id="katman_1" xmlns="http://www.w3.org/2000/svg" xmlns:xlink="http://www.w3.org/1999/xlink" x="0px" y="0px"
	 viewBox="0 0 640 480" style="enable-background:new 0 0 640 480;" xml:space="preserve">
<style type="text/css">
	.st0{fill:#6C757D;stroke:#000000;stroke-width:3;stroke-miterlimit:10;}
	.st1{fill:#FFFFFF;stroke:#000000;stroke-width:0.25;stroke-miterlimit:10;}
	.st2{fill:#FFFFFF;}
	.st3{fill:#FF9505;stroke:#000000;stroke-miterlimit:10;}
	.st4{fill:#E9ECEF;stroke:#000000;stroke-miterlimit:10;}
	.st5{fill:#6C757D;stroke:#000000;stroke-width:0.5;stroke-miterlimit:10;}
	.st6{fill:#FFFFFF;stroke:#000000;stroke-width:0.75;stroke-miterlimit:10;}
	.st7{stroke:#000000;stroke-width:0.25;stroke-miterlimit:10;}
</style>
<path class="st0" d="M149.55,271.16c-8.15-0.25-31.64,0.29-45.47-3c-0.34-0.08-0.83-0.2-1.5-0.38c-3.86-1.03-17.88-1.17-19.23-10.12
	c-1.89-12.44-16.62-85.51,26.75-129.43c6.87-6.95,19.29-17.4,35.45-16.79c15.1,0.57,26.54,10.8,30.24,14.11
	c9.93,8.88,15.3,20.26,16.69,23.26c2.37,5.14,4.19,9.23,5.52,12.72c4.53,11.92,6.9,23.43,6.9,23.43c1.26,6.53,4.08,21.81,0.69,40.83
	c-1.84,10.32-4.88,18.24-6.9,23.43c-3,7.7-6.21,14-8.85,18.68C176.39,268.98,162.97,270.07,149.55,271.16z"/>
<path class="st1" d="M111.81,370.36"/>
<path class="st2" d="M440.95,334.89"/>
<path class="st1" d="M202.3,286.03"/>
<path class="st1" d="M451.2,74.19"/>
<ellipse class="st3" cx="165.9" cy="273.49" rx="21.07" ry="10.04"/>
<path class="st4" d="M190.27,215.66c2.53,6.2,10.89,26.67-0.68,37.54c-2.15,2.02-7.22,5.81-44.82,5.16
	c-30.72-0.53-46.21-0.94-52.27-8.09c-8.22-9.7-1.61-24.66,2.02-32.88c1.63-3.69,18.53-41.99,50.25-40.97
	C174.64,177.37,188.88,212.24,190.27,215.66z"/>
<ellipse class="st3" cx="116.25" cy="273.49" rx="21.07" ry="10.04"/>
<path class="st1" d="M433.73,80.88"/>
<path class="st4" d="M99.81,158.88c2.59,8.47,5.17,16.95,7.76,25.42c-11.68,21.96-23.37,43.91-35.05,65.87
	C43.79,206.13,65.25,180.15,99.81,158.88z"/>
<path class="st5" d="M145.43,126.05c0.72-2.8,3.46-4.99,6.94-5.54c3.6-0.57,7.3,0.72,9.26,3.23"/>
<path class="st4" d="M185.18,159.12c-2.44,8.52-4.88,17.03-7.33,25.55c12.05,21.76,24.11,43.51,36.16,65.27
	C241.99,205.42,220.1,179.8,185.18,159.12z"/>
<path class="st5" d="M121.92,130.17c0.83-4.06,4.02-7.23,8.06-8.03c4.18-0.83,8.48,1.04,10.75,4.69"/>
<path class="st6" d="M161.63,137.35c0,6.65-3.68,16.06-7.39,16.06s-7.39-9.41-7.39-16.06c0-6.65,3.01-12.05,6.72-12.05
	S161.63,130.7,161.63,137.35z"/>
<path class="st6" d="M140.05,137.35c0,6.65-3.68,16.06-7.39,16.06s-7.39-9.41-7.39-16.06c0-6.65,3.01-12.05,6.72-12.05
	S140.05,130.7,140.05,137.35z"/>
<ellipse class="st7" cx="132.66" cy="138.45" rx="3.02" ry="2.37"/>
<ellipse class="st7" cx="154.24" cy="136.08" rx="3.02" ry="2.37"/>
<path class="st1" d="M146.47,163.96"/>
<path class="st3" d="M157.26,156.9c-0.36-3.07-7.18-5.24-12.81-5.23c-5.27,0.01-12.74,1.92-13.13,5.23
	c-0.34,2.88,4.81,5.73,8.59,7.82c3.91,2.16,5.73,2.06,6.3,2.01c2.16-0.2,3.78-1.34,6.27-3.08c2.15-1.51,2.94-2.57,3.22-2.98
	C156.37,159.72,157.42,158.22,157.26,156.9z"/>
<path class="st1" d="M142.94,152.42"/>
</svg>
