<?xml version="1.0" encoding="utf-8"?>
<!-- Generator: Adobe Illustrator 26.0.3, SVG Export Plug-In . SVG Version: 6.00 Build 0)  -->
<svg version="1.1" id="katman_1" xmlns="http://www.w3.org/2000/svg" xmlns:xlink="http://www.w3.org/1999/xlink" x="0px" y="0px"
	 viewBox="0 0 640 480" style="enable-background:new 0 0 640 480;" xml:space="preserve">
<style type="text/css">
	.st0{fill:#003566;}
</style>
<g>
	<path class="st0" d="M223.25,212.72v-6.11c3.59,1.1,6.6,1.65,9.05,1.65c1.42,0,2.54-0.21,3.36-0.62c0.82-0.41,1.23-0.96,1.23-1.64
		c0-0.52-0.33-1.01-0.99-1.47c-0.66-0.46-1.8-1.01-3.42-1.67c-3.91-1.57-6.75-3.03-8.51-4.39s-2.64-2.86-2.64-4.52
		c0-2.26,1.36-4.11,4.08-5.54c2.72-1.43,6.23-2.14,10.54-2.14c3.19,0,6.36,0.36,9.5,1.08v5.87c-3.36-0.97-6.09-1.45-8.19-1.45
		c-1.4,0-2.5,0.18-3.31,0.54c-0.81,0.36-1.22,0.85-1.22,1.48c0,1.1,1.88,2.34,5.65,3.71c2.24,0.81,4.52,1.95,6.82,3.43
		c2.31,1.47,3.46,3.18,3.46,5.11c0,2.26-1.51,4.14-4.52,5.62c-3.02,1.49-6.84,2.23-11.48,2.23
		C229.51,213.89,226.36,213.5,223.25,212.72z"/>
	<path class="st0" d="M274.25,207.69v4.71c-2.59,0.92-5.2,1.37-7.81,1.37c-3.86,0-6.96-0.88-9.29-2.64c-2.33-1.76-3.5-4.13-3.5-7.1
		c0-2.81,1.2-5.1,3.59-6.87c2.39-1.77,5.48-2.65,9.27-2.65c2.64,0,5.25,0.49,7.81,1.47v4.67c-1.47-0.41-2.79-0.61-3.96-0.61
		c-1.75,0-3.15,0.37-4.23,1.11c-1.07,0.74-1.61,1.72-1.61,2.95c0,1.3,0.52,2.32,1.57,3.06c1.05,0.75,2.47,1.12,4.26,1.12
		C271.46,208.3,272.75,208.1,274.25,207.69z"/>
	<path class="st0" d="M293.58,194.52c4.96,0,8.74,0.87,11.33,2.6c2.59,1.73,3.89,4.15,3.89,7.23c0,3.02-1.35,5.36-4.04,7.02
		c-2.69,1.66-6.42,2.48-11.18,2.48c-4.56,0-8.18-0.84-10.86-2.53c-2.68-1.69-4.02-4.01-4.02-6.97c0-3.09,1.28-5.5,3.83-7.23
		C285.08,195.39,288.77,194.52,293.58,194.52z M293.65,208.75c1.42,0,2.49-0.35,3.2-1.04s1.07-1.88,1.07-3.55
		c0-1.66-0.35-2.83-1.05-3.49s-1.75-1-3.14-1c-1.37,0-2.42,0.32-3.14,0.97c-0.72,0.65-1.08,1.84-1.08,3.56
		C289.5,207.23,290.89,208.75,293.65,208.75z"/>
	<path class="st0" d="M325.58,195.15v3.02h0.15c2.59-2.36,5.32-3.53,8.19-3.53c0.42,0,1.01,0.04,1.76,0.12v5.59
		c-1.32-0.12-2.54-0.18-3.66-0.18c-3.99,0-5.98,1.35-5.98,4.06v8.97h-10.84v-18.06H325.58z"/>
	<path class="st0" d="M357.7,207.69h9.16c-1.75,4.06-6.11,6.09-13.09,6.09c-4.36,0-7.81-0.87-10.36-2.61
		c-2.54-1.74-3.81-4.14-3.81-7.2c0-2.85,1.27-5.14,3.81-6.86c2.54-1.72,5.92-2.58,10.13-2.58c2.54,0,4.98,0.42,7.33,1.25
		c2.34,0.83,4.05,1.93,5.12,3.31c1.07,1.37,1.67,3.54,1.79,6.5h-18.13c0.15,2.68,1.57,4.02,4.26,4.02c0.92,0,1.74-0.18,2.47-0.53
		C357.11,208.71,357.55,208.25,357.7,207.69z M349.81,202.47h7.89c-0.08-1.27-0.41-2.21-1.01-2.82c-0.6-0.61-1.55-0.91-2.84-0.91
		c-1.45,0-2.48,0.29-3.1,0.88C350.12,200.21,349.81,201.16,349.81,202.47z"/>
</g>
</svg>
