<?xml version="1.0" encoding="utf-8"?>
<!-- Generator: Adobe Illustrator 26.0.3, SVG Export Plug-In . SVG Version: 6.00 Build 0)  -->
<svg version="1.1" id="katman_1" xmlns="http://www.w3.org/2000/svg" xmlns:xlink="http://www.w3.org/1999/xlink" x="0px" y="0px"
	 viewBox="0 0 640 480" style="enable-background:new 0 0 640 480;" xml:space="preserve">
<style type="text/css">
	.st0{fill:#003566;}
</style>
<g>
	<path class="st0" d="M165.6,199.7v-7.41c2.61,1.33,4.8,2,6.57,2c1.03,0,1.85-0.25,2.44-0.75c0.6-0.5,0.9-1.16,0.9-1.99
		c0-0.64-0.24-1.23-0.72-1.79c-0.48-0.56-1.31-1.23-2.48-2.02c-2.84-1.91-4.9-3.68-6.18-5.32c-1.28-1.64-1.91-3.47-1.91-5.49
		c0-2.75,0.99-4.99,2.96-6.72c1.97-1.73,4.53-2.6,7.66-2.6c2.32,0,4.62,0.44,6.9,1.31v7.12c-2.44-1.18-4.43-1.76-5.95-1.76
		c-1.01,0-1.82,0.22-2.4,0.65c-0.59,0.44-0.88,1.04-0.88,1.8c0,1.33,1.37,2.83,4.1,4.5c1.63,0.98,3.28,2.37,4.96,4.16
		c1.67,1.79,2.51,3.86,2.51,6.21c0,2.75-1.1,5.02-3.29,6.83c-2.19,1.8-4.97,2.7-8.34,2.7C170.14,201.13,167.86,200.65,165.6,199.7z"
		/>
	<path class="st0" d="M200.82,193.6h6.65c-1.27,4.92-4.44,7.39-9.5,7.39c-3.17,0-5.68-1.06-7.52-3.17
		c-1.85-2.11-2.77-5.03-2.77-8.74c0-3.46,0.92-6.24,2.77-8.33s4.3-3.13,7.36-3.13c1.85,0,3.62,0.5,5.32,1.51
		c1.7,1.01,2.94,2.35,3.72,4.01c0.78,1.67,1.21,4.3,1.3,7.89h-13.17c0.11,3.26,1.14,4.88,3.1,4.88c0.67,0,1.27-0.21,1.79-0.64
		C200.39,194.84,200.71,194.28,200.82,193.6z M195.09,187.26h5.73c-0.05-1.54-0.3-2.68-0.73-3.42c-0.43-0.74-1.12-1.11-2.06-1.11
		c-1.05,0-1.8,0.36-2.25,1.07C195.31,184.52,195.09,185.67,195.09,187.26z"/>
	<path class="st0" d="M213.74,172.54h7.9v5.84h3.07v5.77h-3.12v16.15h-7.85v-16.2h-2.99v-5.72h2.99V172.54z"/>
	<path class="st0" d="M229.71,172.54h7.9v5.84h3.07v5.77h-3.12v16.15h-7.85v-16.2h-2.99v-5.72h2.99V172.54z"/>
	<path class="st0" d="M244.7,171.8c0-1.02,0.41-1.88,1.22-2.6c0.81-0.71,1.79-1.07,2.93-1.07c1.16,0,2.15,0.36,2.96,1.07
		c0.81,0.71,1.22,1.58,1.22,2.6c0,1-0.41,1.86-1.22,2.58c-0.81,0.72-1.8,1.08-2.96,1.08c-1.12,0-2.1-0.36-2.92-1.08
		C245.11,173.66,244.7,172.8,244.7,171.8z M244.92,178.38h7.9v21.92h-7.9V178.38z"/>
	<path class="st0" d="M266.92,178.38v2.98h0.14c1.85-2.46,4.1-3.69,6.76-3.69c1.74,0,3.12,0.51,4.14,1.52
		c1.02,1.02,1.53,2.39,1.53,4.12v16.99h-7.9v-13.51c0-0.75-0.2-1.36-0.6-1.83c-0.4-0.48-0.91-0.71-1.55-0.71
		c-1.68,0-2.53,0.93-2.53,2.79v13.27h-7.88v-21.92H266.92z"/>
	<path class="st0" d="M297.85,200.39v-3.12c-1.54,1.99-3.37,2.98-5.49,2.98c-2.68,0-4.76-0.98-6.25-2.94
		c-1.48-1.96-2.23-4.74-2.23-8.33c0-3.51,0.72-6.27,2.17-8.27c1.45-2,3.43-3,5.95-3c2.24,0,4.14,0.99,5.68,2.98h0.11v-2.31h7.9v20.3
		c0,1.86-0.38,3.62-1.13,5.29c-0.75,1.67-2.08,2.98-3.98,3.93c-1.9,0.95-3.98,1.43-6.25,1.43s-4.39-0.53-6.38-1.6
		c-1.99-1.06-3.29-2.84-3.88-5.34h7.06c0.81,1.11,1.83,1.67,3.04,1.67c1.03,0,1.9-0.35,2.61-1.06
		C297.49,202.29,297.85,201.42,297.85,200.39z M297.85,188.88c0-3.54-1.01-5.31-3.04-5.31c-1,0-1.78,0.43-2.36,1.29
		c-0.58,0.86-0.87,2.05-0.87,3.57c0,4,1.06,6,3.18,6C296.81,194.43,297.85,192.58,297.85,188.88z"/>
	<path class="st0" d="M312.65,193.22c2.7,1.4,4.64,2.1,5.84,2.1c0.65,0,1.19-0.15,1.63-0.44c0.43-0.29,0.65-0.65,0.65-1.06
		c0-0.44-0.18-0.77-0.54-0.98c-0.36-0.21-1.72-0.76-4.07-1.67c-1.88-0.73-3.24-1.59-4.07-2.58c-0.83-0.99-1.25-2.23-1.25-3.7
		c0-2.11,0.83-3.85,2.48-5.22c1.66-1.37,3.77-2.05,6.34-2.05c2.5,0,5.56,0.87,9.18,2.62l-3.04,4.93c-2.35-1.27-4.28-1.91-5.78-1.91
		c-1.3,0-1.96,0.46-1.96,1.38c0,0.44,0.24,0.83,0.72,1.16c0.48,0.33,1.35,0.69,2.62,1.08c2.37,0.73,4.1,1.6,5.17,2.62
		c1.08,1.02,1.62,2.3,1.62,3.86c0,2.22-0.85,4.05-2.55,5.48s-3.87,2.14-6.52,2.14c-2.86,0-5.92-0.88-9.18-2.64L312.65,193.22z"/>
</g>
</svg>
