<?xml version="1.0" encoding="utf-8"?>
<!-- Generator: Adobe Illustrator 26.0.3, SVG Export Plug-In . SVG Version: 6.00 Build 0)  -->
<svg version="1.1" id="katman_1" xmlns="http://www.w3.org/2000/svg" xmlns:xlink="http://www.w3.org/1999/xlink" x="0px" y="0px"
	 viewBox="0 0 640 480" style="enable-background:new 0 0 640 480;" xml:space="preserve">
<style type="text/css">
	.st0{fill:#3D405B;}
</style>
<g>
	<path class="st0" d="M132.31,189.8l-7.29,22.88c-2.13-1.22-4.48-1.83-7.06-1.83c-3.69,0-5.54,1.66-5.54,4.97
		c0,1.59,0.52,2.82,1.54,3.71c1.03,0.89,2.5,1.34,4.4,1.34c2.58,0,4.79-0.76,6.64-2.29l7.29,24.54c-2.06,2.04-4.55,3.67-7.47,4.88
		c-2.92,1.22-5.71,1.83-8.37,1.83c-6.68,0-12-3.18-15.95-9.53c-3.96-6.35-5.94-14.17-5.94-23.46c0-9.82,2.06-17.92,6.18-24.31
		c4.12-6.38,9.36-9.57,15.71-9.57c2.75,0,5.58,0.62,8.51,1.85C127.91,186.05,130.35,187.71,132.31,189.8z"/>
	<path class="st0" d="M151.96,249.54c-4.91,0-8.96-2.44-12.14-7.32c-3.19-4.88-4.78-11.24-4.78-19.08c0-7.84,1.57-14.22,4.71-19.15
		c3.14-4.92,7.21-7.39,12.21-7.39c5.03,0,9.12,2.46,12.27,7.39c3.15,4.93,4.73,11.31,4.73,19.15c0,7.81-1.58,14.17-4.73,19.06
		C161.08,247.09,156.99,249.54,151.96,249.54z M151.96,216.76c-1.03,0-1.87,0.55-2.51,1.63c-0.64,1.09-0.97,2.5-0.97,4.22
		c0,1.73,0.32,3.13,0.97,4.2c0.64,1.08,1.48,1.61,2.51,1.61c1.05,0,1.9-0.54,2.55-1.61c0.65-1.08,0.98-2.48,0.98-4.2
		c0-1.75-0.33-3.17-0.98-4.25C153.86,217.3,153.01,216.76,151.96,216.76z"/>
	<path class="st0" d="M189.9,248.78h-15.92v-64.79h15.92V248.78z"/>
	<path class="st0" d="M232.26,183.99v64.79h-18.93c-5.79,0-10.28-2.46-13.47-7.39c-3.19-4.92-4.79-11.12-4.79-18.6
		c0-7.27,1.46-13.35,4.37-18.24c2.91-4.88,6.54-7.32,10.88-7.32c2.4,0,4.4,0.61,6,1.83v-15.07H232.26z M216.32,230.18v-11.51
		c-0.79-0.85-1.68-1.27-2.68-1.27c-0.94,0-1.73,0.62-2.34,1.85c-0.62,1.23-0.93,2.78-0.93,4.65c0,2.18,0.37,3.77,1.12,4.78
		c0.75,1,1.94,1.51,3.57,1.51H216.32z"/>
	<path class="st0" d="M270.27,211.67h9.97c-2.47,6.34-5.14,11.87-8.01,16.6l12.18,20.51h-17.77l-3.97-6.62
		c-1.96,2.46-4.14,4.36-6.55,5.69c-2.41,1.33-4.78,2-7.1,2c-3.49,0-6.25-1.44-8.29-4.31c-2.04-2.87-3.06-6.54-3.06-11.02
		c0-8.04,3.22-14.32,9.66-18.85c-2.64-4.56-3.97-9.17-3.97-13.84c0-5.38,1.29-9.86,3.86-13.46c2.57-3.59,5.81-5.39,9.71-5.39
		c3.48,0,6.34,1.44,8.55,4.33c2.21,2.89,3.32,6.6,3.32,11.12c0,5.66-1.81,10.64-5.44,14.94l3.73,6.28
		C268.26,217.64,269.31,214.98,270.27,211.67z M257.71,233.75l-4.3-7.13c-0.89,0.88-1.54,1.7-1.94,2.46
		c-0.4,0.76-0.61,1.74-0.61,2.93c0,1.3,0.28,2.38,0.85,3.23c0.57,0.85,1.29,1.27,2.16,1.27C255,236.51,256.28,235.59,257.71,233.75z
		 M259.56,207.72c2.28-1.1,3.43-3.1,3.43-5.99c0-1.3-0.27-2.36-0.81-3.18c-0.54-0.82-1.23-1.23-2.07-1.23
		c-0.82,0-1.52,0.44-2.1,1.32c-0.57,0.88-0.86,1.94-0.86,3.18C257.14,203.72,257.95,205.68,259.56,207.72z"/>
	<path class="st0" d="M307.23,249.84c-5.61,0-10.38-3.25-14.28-9.74c-3.91-6.5-5.86-14.41-5.86-23.75c0-9.31,1.95-17.2,5.86-23.67
		c3.91-6.47,8.67-9.7,14.28-9.7c5.63,0,10.4,3.23,14.31,9.7s5.86,14.36,5.86,23.67c0,9.34-1.95,17.26-5.86,23.75
		S312.86,249.84,307.23,249.84z M307.23,207.81c-1.12,0-2.04,0.64-2.78,1.93c-0.74,1.29-1.11,2.91-1.11,4.86
		c0,1.95,0.37,3.57,1.11,4.86s1.67,1.93,2.78,1.93c1.13,0,2.07-0.64,2.81-1.93s1.11-2.91,1.11-4.86c0-1.95-0.37-3.57-1.11-4.86
		C309.3,208.45,308.37,207.81,307.23,207.81z"/>
	<path class="st0" d="M348.54,183.99v15.24c2.01-1.33,4.02-2,6.03-2c4.38,0,8.02,2.41,10.92,7.22c2.9,4.81,4.35,10.87,4.35,18.17
		c0,7.36-1.52,13.56-4.56,18.6c-3.04,5.04-7.31,7.56-12.83,7.56h-19.83v-64.79H348.54z M348.54,230.18h0.36
		c1.34,0,2.38-0.12,3.13-0.36s1.36-0.83,1.83-1.78c0.47-0.95,0.71-2.44,0.71-4.48c0-1.9-0.31-3.4-0.93-4.5
		c-0.62-1.1-1.46-1.66-2.52-1.66c-0.84,0-1.7,0.4-2.58,1.19V230.18z"/>
	<path class="st0" d="M389.67,248.78h-15.92v-64.79h15.92V248.78z"/>
	<path class="st0" d="M411.72,197.66v51.12H395.8v-51.12c2.09,1.95,4.82,2.93,8.16,2.93C407.07,200.59,409.66,199.61,411.72,197.66z
		 M407.13,197.83c-1.24,0-2.3-0.74-3.19-2.21c-0.89-1.47-1.34-3.23-1.34-5.26s0.45-3.78,1.34-5.22c0.89-1.44,1.96-2.17,3.19-2.17
		s2.29,0.72,3.17,2.17c0.88,1.44,1.31,3.18,1.31,5.22s-0.44,3.79-1.31,5.26C409.42,197.09,408.37,197.83,407.13,197.83z"/>
	<path class="st0" d="M414.11,197.66h15.92l3.45,13.03l3.37-13.03h15.92l-13.44,51.12h-11.77L414.11,197.66z"/>
	<path class="st0" d="M471.65,197.66v51.12h-15.92v-51.12c2.09,1.95,4.82,2.93,8.16,2.93C467,200.59,469.59,199.61,471.65,197.66z
		 M467.06,197.83c-1.24,0-2.3-0.74-3.19-2.21c-0.89-1.47-1.34-3.23-1.34-5.26s0.45-3.78,1.34-5.22c0.89-1.44,1.96-2.17,3.19-2.17
		s2.29,0.72,3.17,2.17c0.88,1.44,1.31,3.18,1.31,5.22s-0.44,3.79-1.31,5.26C469.35,197.09,468.3,197.83,467.06,197.83z"/>
	<path class="st0" d="M493.59,249.54c-4.91,0-8.96-2.44-12.14-7.32s-4.78-11.24-4.78-19.08c0-7.84,1.57-14.22,4.71-19.15
		c3.14-4.92,7.21-7.39,12.21-7.39c5.03,0,9.12,2.46,12.27,7.39c3.15,4.93,4.73,11.31,4.73,19.15c0,7.81-1.58,14.17-4.73,19.06
		C502.71,247.09,498.62,249.54,493.59,249.54z M493.59,216.76c-1.03,0-1.87,0.55-2.51,1.63c-0.64,1.09-0.97,2.5-0.97,4.22
		c0,1.73,0.32,3.13,0.97,4.2c0.64,1.08,1.48,1.61,2.51,1.61c1.05,0,1.9-0.54,2.55-1.61s0.98-2.48,0.98-4.2
		c0-1.75-0.33-3.17-0.98-4.25C495.49,217.3,494.64,216.76,493.59,216.76z"/>
	<path class="st0" d="M531.42,197.66v6.41c2.68-4.56,5.88-6.84,9.61-6.84c3.62,0,6.4,1.66,8.33,4.99c1.93,3.33,2.9,8.26,2.9,14.8
		v31.76h-15.04v-29.8c0-4.25-0.98-6.37-2.94-6.37c-0.94,0-1.9,0.55-2.86,1.66v34.52H515.5v-51.12H531.42z"/>
</g>
</svg>
